<?xml version="1.0" encoding="UTF-8" standalone="no"?>
<svg
   version="1.0"
   width="1280.000000pt"
   height="1136.000000pt"
   viewBox="0 0 1280.000000 1136.000000"
   preserveAspectRatio="xMidYMid meet"
   id="svg18207"
   sodipodi:docname="pixelied-fish.svg"
   inkscape:version="1.2 (dc2aeda, 2022-05-15)"
   xmlns:inkscape="http://www.inkscape.org/namespaces/inkscape"
   xmlns:sodipodi="http://sodipodi.sourceforge.net/DTD/sodipodi-0.dtd"
   xmlns="http://www.w3.org/2000/svg"
   xmlns:svg="http://www.w3.org/2000/svg">
  <defs
     id="defs18211" />
  <sodipodi:namedview
     id="namedview18209"
     pagecolor="#ffffff"
     bordercolor="#666666"
     borderopacity="1.0"
     inkscape:showpageshadow="2"
     inkscape:pageopacity="0.0"
     inkscape:pagecheckerboard="0"
     inkscape:deskcolor="#d1d1d1"
     inkscape:document-units="pt"
     showgrid="false"
     inkscape:zoom="0.40640068"
     inkscape:cx="679.13273"
     inkscape:cy="755.41213"
     inkscape:window-width="1573"
     inkscape:window-height="962"
     inkscape:window-x="0"
     inkscape:window-y="23"
     inkscape:window-maximized="0"
     inkscape:current-layer="svg18207" />
  <metadata
     id="metadata18201">
Created by potrace 1.15, written by Peter Selinger 2001-2017
</metadata>
  <g
     transform="translate(0.000000,1136.000000) scale(0.100000,-0.100000)"
     fill="#000000"
     stroke="none"
     id="g18205">
    <path
       d="m 2775,11350 c -866,-47 -1495,-215 -1894,-507 -99,-73 -234,-210 -294,-301 -63,-94 -113,-202 -139,-305 -30,-113 -32,-353 -4,-476 17,-74 18,-84 4,-92 C 395,9639 198.51497,9508.2076 135,9434 71.485035,9359.7924 4.5901883,9249.1606 6,9147 c 2,-194 130,-298 414,-336 41,-6 185,-19 320,-31 591,-50 827,-87 1080,-170 164,-54 410,-182 410,-213 0,-7 -18,-54 -40,-105 -120,-278 -176,-593 -159,-902 25,-454 240,-861 616,-1168 125,-102 425,-284 441,-267 4,3 10,133 13,288 7,305 19,409 68,598 64,244 162,427 314,586 l 79,82 c 48.0501,42.8044 147.5298,88.0424 211.1442,128.2861 C 4281.173,7344.1729 5068.5829,6943.0967 5840,6588 c 229,-105 314,-150 840,-438 738,-405 811.7782,-459.8029 1239.5453,-766.7282 C 8347.3124,5076.3465 8743.4125,4749.5031 9066,4310 c 322.5875,-439.5031 685.6763,-1126.0953 914,-1675 44,-103 143,-376 138,-380 -2,-1 -52,-12 -112,-24 C 9360,2102 8607,1400 8361,697 8304,533 8277,348 8299,258 l 6,-27 125,76 c 249,151 420,228 584,265 109,24 229,21 546,-13 304,-34 567,-32 910,6 594,66 1130,26 1511,-111 164,-59 239,-100 661,-363 81,-50 150,-91 154,-91 15,0 -7,303 -31,446 -33,188 -58,286 -100,391 -137,340 -554,792 -973,1056 -53,33 -178,103 -277,155 -262,137 -330,180 -399,248 -68,67 -112,146 -126,227 -5,28 -14,126 -20,217 -71,1088 -255,2117 -547,3050 -25,80 -49,160 -55,178 -24,82 -153,435 -226,617 -349,873 -772,1581 -1339,2241 -175,203 -258,320 -328,459 -91,180 -115,320 -76,444 31,99 103,180 209,231 34,17 62,37 62,43 0,16 -70,136 -124,211 -61,86 -181,196 -248,228 -105,52 -173,62 -388,62 -214,-1 -370,-16 -722,-69 l -227,-35 -173,92 c -886,468 -1887,754 -2944,843 -218,19 -751,27 -969,15 z"
       id="path18203"
       sodipodi:nodetypes="cccccczccccsccccccccccczzccccccccccccsccccccccccccccscccccccc" />
  </g>
</svg>
