<?xml version="1.0" encoding="UTF-8" standalone="no"?>
<!-- Created with Inkscape (http://www.inkscape.org/) -->

<svg
   width="210mm"
   height="297mm"
   viewBox="0 0 210 297"
   version="1.1"
   id="svg5"
   xml:space="preserve"
   sodipodi:docname="emy.svg"
   inkscape:version="1.2 (dc2aeda, 2022-05-15)"
   xmlns:inkscape="http://www.inkscape.org/namespaces/inkscape"
   xmlns:sodipodi="http://sodipodi.sourceforge.net/DTD/sodipodi-0.dtd"
   xmlns="http://www.w3.org/2000/svg"
   xmlns:svg="http://www.w3.org/2000/svg"><sodipodi:namedview
     id="namedview7"
     pagecolor="#ffffff"
     bordercolor="#666666"
     borderopacity="1.0"
     inkscape:showpageshadow="2"
     inkscape:pageopacity="0.0"
     inkscape:pagecheckerboard="0"
     inkscape:deskcolor="#d1d1d1"
     inkscape:document-units="mm"
     showgrid="false"
     inkscape:zoom="1.51"
     inkscape:cx="10.3"
     inkscape:cy="57.2"
     inkscape:window-width="1123"
     inkscape:window-height="937"
     inkscape:window-x="413"
     inkscape:window-y="23"
     inkscape:window-maximized="0"
     inkscape:current-layer="layer1" /><defs
     id="defs2" /><g
     inkscape:label="Capa 1"
     inkscape:groupmode="layer"
     id="layer1"><path
       d="M 1.92,33.5 0.999,32.5 2.76,25.5 4.91,18.5 5.65,15.4 2.15,15.5 -3.55,15.6 -6.13,16.7 -8.64,20.7 -11.8,25.8 -14.1,27.8 -17,30.9 -20.9,34 -22.5,34 -22.2,28 -20.6,24 -19.9,21 -19.2,17.9 -22.4,16 -24.1,13 -26.2,16.1 -26.4,18.1 -28.2,24.1 -30.5,24.2 -32.9,15.2 -29.7,8.2 -28.4,6.17 -29.2,2.19 -29.6,0.188 -32.3,0.243 -35.6,0.311 -39.8,-0.6 -42.8,-1.54 -44.4,-2.51 -46.1,-3.47 -47.8,-5.44 -48.9,-5.41 -51.5,-7.36 -52.6,-10.4 -51.8,-12.4 -49.3,-13.4 -47.6,-13.5 -46.2,-14.5 -41.3,-19.6 -39.3,-22.7 -36.7,-26.7 -34.9,-30.7 -31,-37.8 -28.6,-40.9 -24.8,-44 -22.5,-44 -21.8,-42 -22.6,-37 -21.9,-37 -17.9,-39.1 -16.8,-38.1 -16.8,-36.1 -15.5,-37.1 -12.8,-37.2 -12,-35.2 -10.6,-35.2 -9.97,-34.3 -8.77,-34.3 -6.89,-35.3 -4.71,-36.4 1.15,-38.5 3.75,-38.5 5.85,-38.6 6.57,-37.6 6.59,-36.6 4.85,-33.6 3.89,-31.5 2.33,-29.5 -1.58,-25.4 0.536,-24.5 -0.003,-21.5 -0.562,-19.4 -2.3,-16.4 -3.46,-14.4 -4.42,-12.4 -9.06,-9.23 -11.3,-7.18 -10.3,-6.2 -6.69,-6.28 1.18,-7.44 5.56,-8.53 8.74,-9.59 12.9,-10.7 15.5,-10.8 18.5,-11.8 22.3,-15.9 29.2,-20.1 34.2,-22.2 36.2,-22.2 44.1,-23.4 47.2,-21.4 47.2,-20.4 49.2,-19.5 51.2,-18.5 53.3,-16.5 55.3,-14.6 56.4,-12.6 54.4,-12.6 54.4,-11.6 57.4,-9.59 60.5,-7.65 62.5,-6.69 64.5,-5.73 70.5,-4.85 76.5,-4.97 79.5,-6.04 81.5,-7.08 84.5,-8.14 86.5,-5.18 86.6,0.82 82.8,8.86 81.9,11.9 77,19 75.1,22 67.2,28.2 60.2,29.3 59.3,32.3 V 32.3 L 53.2,29.5 47.1,23.6 43,18.7 38.9,11.8 37.8,9.78 35.7,4.86 32.7,1.92 30.6,-1.04 28.6,-2 25.5,-3.93 25.6,0.061 26.7,5.04 24.9,15 24,20.1 24.1,24.1 24.3,31.1 23.3,33.1 21.3,33.1 18.3,30.2 14.8,23.3 13,20.3 12,22.3 8.32,28.4 3.42,33.5 Z"
       id="path452" /></g></svg>
