<?xml version="1.0" encoding="UTF-8" ?>
<!DOCTYPE svg PUBLIC "-//W3C//DTD SVG 1.1//EN" "http://www.w3.org/Graphics/SVG/1.1/DTD/svg11.dtd">
<svg width="2291pt" height="1362pt" viewBox="0 0 2291 1362" version="1.1" xmlns="http://www.w3.org/2000/svg">
<path fill="#000000" opacity="1.00" d=" M 2286.59 0.00 L 2287.44 0.00 C 2271.93 24.16 2247.44 46.32 2226.24 67.53 C 2225.20 71.11 2229.67 69.82 2231.37 68.53 C 2252.26 54.08 2271.09 36.93 2291.00 21.21 L 2291.00 22.98 C 2274.35 43.22 2254.94 60.97 2236.82 79.84 C 2234.96 82.17 2231.86 88.91 2236.92 88.96 C 2249.25 84.87 2259.56 75.88 2272.09 72.22 C 2266.01 89.92 2246.08 97.53 2235.95 112.33 C 2234.84 118.87 2247.65 110.97 2245.17 116.51 C 2228.69 135.74 2206.90 149.44 2187.23 165.15 C 2183.81 169.00 2175.47 170.04 2177.10 176.86 C 2182.40 177.55 2191.58 172.18 2194.80 176.64 C 2179.50 195.19 2157.28 206.13 2138.50 220.57 C 2134.52 223.12 2141.42 227.03 2139.35 230.23 C 2122.53 251.44 2096.00 261.15 2075.00 277.32 C 2074.50 281.61 2083.27 282.47 2080.00 287.07 C 2067.77 305.19 2046.24 313.22 2028.52 324.75 C 2029.50 355.05 1985.31 352.81 1976.30 377.28 C 1965.11 392.62 1939.58 391.34 1933.95 410.90 C 1924.01 420.69 1905.27 419.56 1900.57 434.55 C 1888.21 442.79 1879.59 454.97 1866.06 461.00 C 1858.91 465.72 1855.62 474.24 1851.40 481.32 C 1846.68 487.95 1835.90 484.41 1830.82 489.02 C 1827.87 504.32 1811.01 503.18 1799.74 507.96 C 1800.11 515.77 1794.71 523.55 1786.39 521.42 C 1779.71 519.11 1781.94 530.15 1776.19 529.63 C 1768.59 533.54 1765.99 544.21 1756.01 543.84 C 1751.82 550.67 1745.60 563.74 1736.53 560.73 C 1731.83 575.96 1711.68 574.33 1704.43 587.30 C 1691.42 590.89 1687.40 612.06 1670.77 611.65 C 1656.14 625.34 1638.83 638.60 1627.15 657.86 C 1618.33 656.54 1609.86 668.30 1605.35 676.29 C 1595.82 672.81 1587.93 686.77 1582.83 693.57 C 1573.67 692.32 1566.56 700.34 1562.02 707.29 C 1541.50 706.15 1533.97 730.26 1517.97 738.95 C 1511.58 749.25 1494.15 744.13 1492.36 758.09 C 1487.43 764.36 1478.33 762.48 1471.38 764.21 C 1470.56 772.12 1459.25 767.10 1459.20 773.98 C 1465.96 790.11 1455.18 807.23 1446.22 820.23 C 1443.14 823.59 1433.67 824.90 1437.34 830.97 C 1426.63 847.59 1416.71 869.53 1429.96 888.03 C 1438.03 912.32 1445.19 942.35 1430.23 965.18 C 1428.66 979.09 1432.49 992.72 1432.40 1006.56 C 1458.80 1018.56 1492.32 1018.82 1512.90 1041.09 C 1504.62 1051.46 1487.02 1051.27 1476.88 1059.93 C 1491.57 1074.39 1511.37 1086.98 1515.80 1108.56 C 1506.11 1118.92 1490.76 1112.21 1479.01 1110.27 C 1482.11 1129.65 1502.17 1144.97 1498.13 1166.08 C 1490.05 1172.55 1483.53 1160.36 1475.59 1159.54 C 1471.44 1159.93 1466.78 1148.20 1465.17 1156.12 C 1468.94 1175.09 1475.84 1194.00 1473.88 1213.73 C 1463.70 1214.77 1464.47 1198.94 1454.85 1198.24 C 1448.10 1197.13 1444.61 1188.69 1438.12 1188.19 C 1436.09 1213.01 1447.44 1240.99 1441.59 1266.70 C 1433.73 1268.99 1437.82 1253.53 1430.09 1255.15 C 1430.96 1263.05 1432.94 1271.67 1429.18 1279.03 C 1424.67 1259.75 1415.67 1241.87 1406.38 1224.54 C 1399.91 1222.72 1400.80 1234.32 1402.03 1237.86 C 1407.06 1254.58 1401.22 1270.99 1393.07 1285.38 C 1386.32 1266.79 1380.89 1247.57 1373.82 1229.03 C 1371.74 1227.01 1367.16 1227.04 1367.48 1230.62 C 1367.17 1248.40 1360.41 1265.49 1350.85 1280.31 C 1338.36 1260.63 1345.46 1232.73 1331.76 1214.01 C 1320.84 1220.48 1319.24 1244.20 1302.06 1235.65 C 1295.81 1207.53 1305.38 1177.49 1304.83 1148.69 C 1302.65 1145.63 1295.59 1140.18 1296.79 1148.84 C 1295.05 1177.89 1280.27 1204.02 1261.10 1225.19 C 1257.47 1227.54 1259.95 1222.32 1260.49 1220.59 C 1273.45 1189.68 1286.04 1158.60 1297.06 1126.95 C 1302.48 1100.08 1295.62 1070.28 1273.30 1052.70 C 1253.95 1038.16 1243.68 1015.82 1232.68 995.05 C 1226.73 994.69 1221.82 1002.71 1216.27 997.88 C 1201.01 987.27 1178.93 1001.57 1164.74 988.38 C 1156.37 985.58 1147.89 982.19 1138.99 980.31 C 1138.08 991.39 1119.63 984.21 1114.61 994.46 C 1099.89 989.92 1086.39 1003.22 1072.43 999.08 C 1068.61 1007.58 1056.43 1006.23 1052.96 1014.95 C 1047.94 1020.43 1037.63 1019.06 1035.77 1027.79 C 1016.91 1037.04 996.97 1044.64 976.37 1049.20 C 969.75 1059.50 952.18 1051.57 947.67 1063.75 C 939.07 1069.17 925.97 1066.01 920.67 1076.05 C 911.36 1078.97 899.29 1076.59 895.85 1088.26 C 867.64 1088.56 843.08 1102.97 815.91 1107.67 C 813.28 1120.36 793.52 1110.25 790.83 1122.78 C 784.99 1130.17 772.40 1124.51 768.34 1133.51 C 761.10 1139.25 748.26 1131.90 743.55 1141.62 C 738.45 1150.00 723.43 1142.59 721.13 1153.12 C 705.35 1158.38 691.91 1166.46 676.63 1172.51 C 670.88 1182.21 658.80 1189.59 647.46 1185.29 C 633.82 1191.52 619.65 1197.41 606.40 1205.50 C 590.44 1204.97 579.14 1218.51 563.49 1219.20 C 553.31 1223.54 545.55 1231.97 535.71 1236.96 C 514.88 1238.14 502.28 1258.53 482.46 1263.32 C 459.42 1256.14 444.02 1282.60 421.98 1286.09 C 398.78 1281.06 383.88 1305.31 362.66 1310.70 C 355.82 1317.09 348.45 1308.28 351.74 1301.36 C 333.78 1303.77 320.44 1322.49 301.50 1318.18 C 303.46 1329.13 272.13 1343.17 274.53 1325.20 C 249.73 1330.74 230.32 1353.41 204.46 1355.51 C 203.09 1345.90 217.23 1340.96 217.43 1332.21 C 191.86 1337.50 169.17 1353.85 144.11 1362.00 L 134.42 1362.00 C 139.71 1352.30 149.60 1346.53 156.79 1338.45 C 158.75 1332.59 150.31 1333.79 146.93 1334.26 C 122.92 1341.66 100.09 1352.39 75.32 1357.27 C 87.00 1341.71 106.57 1335.03 121.00 1322.51 C 122.16 1317.21 115.18 1316.80 111.58 1317.52 C 82.11 1325.52 52.63 1337.10 22.77 1341.38 C 53.81 1323.76 88.66 1313.90 119.74 1296.35 C 122.11 1287.86 110.15 1292.02 105.99 1292.90 C 71.49 1303.36 36.19 1311.79 0.00 1313.21 L 0.00 1312.25 C 47.42 1302.37 96.34 1296.74 141.05 1277.04 C 200.59 1255.81 255.79 1225.41 312.06 1197.04 C 367.23 1164.24 424.47 1132.23 475.36 1094.40 C 523.82 1068.59 570.31 1039.22 618.00 1011.99 C 647.57 995.45 681.30 989.66 712.66 977.66 C 781.20 953.43 848.43 925.85 915.89 898.89 C 972.40 879.91 1028.14 858.67 1083.44 836.45 C 1099.87 830.13 1115.53 822.06 1129.99 811.99 C 1161.94 796.08 1178.11 762.14 1192.11 731.14 C 1197.44 720.76 1201.96 708.25 1198.32 696.62 C 1192.89 671.46 1193.06 643.06 1207.80 620.81 C 1222.88 602.85 1249.19 602.27 1270.42 606.65 C 1287.48 606.91 1304.60 615.80 1313.68 630.37 C 1319.91 644.80 1322.01 661.11 1319.18 676.55 C 1326.15 681.80 1335.99 687.98 1344.92 683.18 C 1372.20 670.20 1398.24 654.15 1420.04 633.03 C 1464.25 598.20 1504.61 558.91 1547.19 522.18 C 1606.39 476.50 1665.00 429.83 1719.09 378.09 C 1731.18 364.38 1746.39 353.82 1761.03 343.03 C 1811.51 313.56 1863.43 286.24 1912.88 254.87 C 1974.19 228.05 2031.80 193.10 2090.19 160.22 C 2161.48 114.63 2233.41 67.05 2286.59 0.00 Z" />
</svg>
